PathFileType	4	(X/Y/Z)	C:\Data\Karen\RERC_Shoulder\RERC1A_4\RERC1A4_1.trc
DataRate	CameraRate	NumFrames	NumMarkers	Units	OrigDataRate	OrigDataStartFrame	OrigNumFrames
120.00	120.00	       11	11	mm	120.00	72	       107
Frame#	Time	xyphoid process (ribcage)			T8 (posterior)			sternal notch (ribcage)			C7 (posterior)			Acromion process			Glenohumeral cntr of rot. (post)			Medial epicondyle			lateral epicondyle			ulnar styloid			radial styloid			2nd metacarpal head			
		X1	Y1	Z1	X2	Y2	Z2	X3	Y3	Z3	X4	Y4	Z4	X5	Y5	Z5	X6	Y6	Z6	X7	Y7	Z7	X8	Y8	Z8	X9	Y9	Z9	X10	Y10	Z10	X11	Y11	Z11	

72	0.592	1117.29614	231.04454	829.75061	1426.21313	224.10207	799.66187	1191.55615	221.71330	1052.06409	1402.12720	213.68575	1045.80371	1290.97241	370.54337	1117.21899	1397.14551	401.05130	1030.92004	1306.94055	467.63470	771.40302	1283.90723	555.60345	811.19666	1033.74670	561.85187	822.00067	1023.34192	464.34494	814.37677	950.03333	513.82733	866.65637	
73	0.600	1117.29614	231.04454	829.75061	1426.21313	224.10207	799.66187	1191.55615	221.71330	1052.06409	1402.18591	213.55310	1045.83276	1291.10779	370.61438	1117.27930	1397.05334	401.13141	1030.89246	1306.75940	467.49921	771.50995	1284.48352	555.84998	811.37476	1033.58142	561.50909	822.16882	1022.93463	464.18680	814.18549	950.03333	513.82733	866.65637	
74	0.608	1117.21814	231.08430	829.61230	1426.10339	224.13402	799.70264	1191.55615	221.71330	1052.06409	1402.00281	213.70667	1045.76941	1290.97241	370.54337	1117.21899	1397.36475	401.23074	1030.97510	1306.94055	467.63470	771.40302	1284.36560	555.95795	811.48389	1033.58142	561.50909	822.16882	1023.12036	464.14319	814.08698	950.14343	513.80951	866.63538	
75	0.617	1117.29614	231.04454	829.75061	1426.10339	224.13402	799.70264	1191.42139	221.63188	1051.98047	1401.90112	213.45876	1045.66077	1290.97241	370.54337	1117.21899	1397.05334	401.13141	1030.89246	1306.75940	467.49921	771.50995	1283.78516	555.70465	811.28296	1033.58142	561.50909	822.16882	1022.93463	464.18680	814.18549	950.14343	513.80951	866.63538	
76	0.625	1117.29614	231.04454	829.75061	1426.10339	224.13402	799.70264	1191.42139	221.63188	1051.98047	1401.83301	213.53571	1045.60413	1290.96252	370.49954	1117.25427	1397.05334	401.13141	1030.89246	1306.75940	467.49921	771.50995	1284.36560	555.95795	811.48389	1033.58142	561.50909	822.16882	1023.43207	464.18970	814.18469	950.14343	513.80951	866.63538	
77	0.633	1117.29614	231.04454	829.75061	1426.10339	224.13402	799.70264	1191.42139	221.63188	1051.98047	1402.18591	213.55310	1045.83276	1290.95435	370.44778	1117.29175	1397.14551	401.05130	1030.92004	1306.75940	467.49921	771.50995	1284.36560	555.95795	811.48389	1033.58142	561.50909	822.16882	1023.12036	464.14319	814.08698	950.14343	513.80951	866.63538	
78	0.642	1117.29614	231.04454	829.75061	1426.14661	223.99832	799.60773	1191.55615	221.71330	1052.06409	1402.01611	213.38214	1045.66748	1291.08972	370.51877	1117.35193	1397.14551	401.05130	1030.92004	1306.75940	467.49921	771.50995	1284.12048	555.92889	811.59796	1033.58142	561.50909	822.16882	1023.54169	464.31134	814.30005	950.19843	513.77594	866.63910	
79	0.650	1117.29614	231.04454	829.75061	1426.25635	223.96637	799.56696	1191.42139	221.63188	1051.98047	1402.18591	213.55310	1045.83276	1290.95435	370.44778	1117.29175	1397.20874	400.97437	1030.97302	1306.75940	467.49921	771.50995	1284.12048	555.92889	811.59796	1033.58142	561.50909	822.16882	1023.14752	464.06616	814.29370	950.19843	513.77594	866.63910	
80	0.658	1117.29614	231.04454	829.75061	1426.25635	223.96637	799.56696	1191.55615	221.71330	1052.06409	1402.18591	213.55310	1045.83276	1290.95435	370.44778	1117.29175	1397.20874	400.97437	1030.97302	1306.75940	467.49921	771.50995	1284.12048	555.92889	811.59796	1033.58142	561.50909	822.16882	1023.54169	464.31134	814.30005	950.19843	513.77594	866.63910	
81	0.667	1117.29614	231.04454	829.75061	1426.21313	224.10207	799.66187	1191.42139	221.63188	1051.98047	1402.18591	213.55310	1045.83276	1290.95435	370.44778	1117.29175	1397.14551	401.05130	1030.92004	1306.75940	467.49921	771.50995	1284.12048	555.92889	811.59796	1033.58142	561.50909	822.16882	1023.23236	464.22327	814.26141	950.19843	513.77594	866.63910	
82	0.675	1116.94763	231.19394	830.40479	1426.25635	223.96637	799.56696	1191.42139	221.63188	1051.98047	1402.01611	213.38214	1045.66748	1290.95435	370.44778	1117.29175	1397.20874	400.97437	1030.97302	1306.75940	467.49921	771.50995	1284.12048	555.92889	811.59796	1033.58142	561.50909	822.16882	1023.43207	464.18970	814.18469	950.31299	513.75934	866.61621	
